<?xml version="1.0" standalone="no"?>
<!DOCTYPE svg PUBLIC "-//W3C//DTD SVG 20010904//EN"
 "http://www.w3.org/TR/2001/REC-SVG-20010904/DTD/svg10.dtd">
<svg version="1.0" xmlns="http://www.w3.org/2000/svg"
 width="120.000000pt" height="120.000000pt" viewBox="0 0 120.000000 120.000000"
 preserveAspectRatio="xMidYMid meet">
<metadata>
Created by potrace 1.11, written by Peter Selinger 2001-2013
</metadata>
<g transform="translate(0.000000,120.000000) scale(0.100000,-0.100000)"
fill="#000000" stroke="none">
<path d="M629 1176 c-2 -2 -38 -7 -79 -10 -89 -7 -164 -14 -205 -21 -26 -3
-78 -9 -180 -19 -45 -5 -42 -25 4 -32 23 -4 42 -12 42 -18 7 -65 2 -187 -8
-190 -11 -5 -10 -42 1 -53 2 -3 0 -19 -5 -36 -14 -45 -19 -159 -8 -179 7 -12
19 -16 49 -13 36 4 40 2 40 -18 0 -26 10 -41 30 -49 8 -3 21 -25 28 -48 17
-54 76 -131 125 -161 20 -13 37 -27 37 -30 0 -4 -22 -10 -49 -14 -27 -4 -82
-23 -123 -43 -73 -37 -73 -37 -105 -112 -17 -41 -33 -86 -35 -100 l-3 -25 426
-3 427 -2 -9 38 c-10 45 -55 149 -72 166 -20 20 -119 65 -173 78 -32 8 -49 18
-46 26 2 6 8 12 13 12 30 0 135 131 142 178 2 11 15 32 30 46 15 14 28 33 28
43 2 24 6 53 13 82 3 13 0 33 -6 45 -7 11 -11 26 -9 31 9 29 6 167 -5 210 -27
111 -28 102 19 113 23 5 49 10 57 11 8 0 26 3 40 5 14 2 30 5 37 5 16 1 6 28
-10 28 -7 0 -37 4 -67 8 -84 11 -100 13 -170 20 -36 4 -74 9 -85 11 -11 3 -42
7 -69 9 -27 3 -52 8 -56 10 -4 2 -9 3 -11 1z m-317 -115 c4 -3 -4 -38 -17 -76
-27 -75 -34 -191 -15 -239 6 -16 6 -26 0 -26 -14 0 -40 95 -34 125 2 14 1 31
-3 38 -7 12 -13 176 -6 189 4 8 64 -1 75 -11z"/>
</g>
</svg>
